<svg width="24" height="24" viewBox="0 0 24 24" fill="none" xmlns="http://www.w3.org/2000/svg">
<path d="M20 21V18H23V16H20V13H18V16H15V18H18V21H20ZM15.03 21.5H5.65998C4.93998 21.5 4.27998 21.12 3.92998 20.5L1.56998 16.4C1.20998 15.78 1.21998 15.02 1.57998 14.4L7.91998 3.49C8.27998 2.88 8.93998 2.5 9.64998 2.5H14.35C15.06 2.5 15.72 2.88 16.08 3.49L20.56 11.2C20.06 11.07 19.54 11 19 11C18.72 11 18.44 11.02 18.16 11.06L14.35 4.5H9.64998L3.30998 15.41L5.65998 19.5H13.55C13.9 20.27 14.4 20.95 15.03 21.5ZM13.34 15C13.12 15.63 13 16.3 13 17H7.24998L6.51998 15.73L11.1 7.75H12.9L15.43 12.17C14.87 12.59 14.38 13.1 13.99 13.68L11.99 10.19L9.24998 15H13.34Z" fill="black"/>
</svg>
