<svg width="40" height="40" viewBox="0 0 40 40" fill="none" xmlns="http://www.w3.org/2000/svg">
<path d="M22.7602 2.75906C22.7602 1.2346 21.5244 0 20.0011 0C18.4766 0 17.242 1.2346 17.242 2.75906C17.242 3.78618 17.8106 4.67093 18.6428 5.14701V8.27348H21.3569V5.14701C22.1917 4.67093 22.7602 3.78618 22.7602 2.75906ZM16.1362 25.2188L3.84054 37.5158C3.27322 38.0831 3.27322 39.0003 3.84054 39.5663C4.40658 40.1299 5.32374 40.1299 5.88978 39.5663L18.188 27.2681C18.7528 26.702 18.7528 25.7836 18.188 25.2188C17.622 24.6515 16.7036 24.6515 16.1362 25.2188ZM36.1618 37.5158L23.8661 25.2188C23.2975 24.6515 22.3803 24.6515 21.813 25.2188C21.2483 25.7836 21.2483 26.702 21.813 27.2681L34.1126 39.5663C34.6773 40.1299 35.5958 40.1299 36.1618 39.5663C36.7317 38.999 36.7317 38.0831 36.1618 37.5158Z" fill="#70838D"/>
<path d="M20.001 6.87767C29.1191 6.87767 36.5528 14.4913 36.5528 23.5507C36.5528 32.6113 29.1217 40 20.001 40C10.8829 40 3.44919 32.5213 3.44919 23.4608C3.44933 14.4013 10.8829 6.87767 20.001 6.87767Z" fill="#3E4E5C"/>
<path d="M35.517 6.4827L31.4671 3.31382C30.3487 2.43906 28.733 2.63655 27.8571 3.75491L25.704 6.50526C29.0404 7.65232 31.9344 9.7641 34.0723 12.4995L35.9566 10.0928C36.834 8.97317 36.6353 7.35745 35.517 6.4827ZM8.48382 3.27383L4.40519 6.46528C3.27926 7.34617 3.07935 8.97317 3.96039 10.1002L5.86098 12.5295C8.00403 9.77039 10.9217 7.64361 14.2918 6.49655L12.1188 3.71878C11.2379 2.59157 9.6096 2.39294 8.48382 3.27383Z" fill="#70838D"/>
<path d="M20.001 10.7888C26.9661 10.7888 32.6441 16.6042 32.6441 23.5244C32.6441 30.4458 26.9661 36.0889 20.001 36.0889C13.0359 36.0889 7.35788 30.3784 7.35788 23.457C7.35788 16.5357 13.0359 10.7888 20.001 10.7888Z" fill="#EBEBEB"/>
<path d="M26.9 22.0724H21.3794V15.1736C21.3794 14.41 20.7634 13.794 19.9999 13.794C19.2389 13.794 18.6203 14.41 18.6203 15.1736V23.4482C18.6203 24.2067 19.2376 24.8277 19.9999 24.8277H26.8987C27.6572 24.8277 28.2756 24.2104 28.2756 23.4482C28.2756 22.686 27.6596 22.0724 26.9 22.0724Z" fill="#E2574C"/>
</svg>
