<svg width="40" height="40" viewBox="0 0 40 40" fill="none" xmlns="http://www.w3.org/2000/svg">
<path d="M5.00007 1.25002H34.9999C35.6911 1.25002 36.2499 1.80996 36.2499 2.50003V38.75C36.2499 39.4412 35.6911 40 34.9999 40H5.00007C4.30885 40 3.75005 39.4412 3.75005 38.75V2.50003C3.7502 1.80996 4.30885 1.25002 5.00007 1.25002Z" fill="#E37948"/>
<path d="M7.50011 4.99993H32.5V36.2498H7.50011V4.99993Z" fill="white"/>
<path d="M9.96143 2.50004H16.199V0H23.7476L23.7739 2.50004H29.9976V6.25009H9.96143V2.50004Z" fill="#E4E7E7"/>
<path d="M10.0001 5.00993H30.0001V6.25737H10.0001V5.00993Z" fill="#CDCFCF"/>
<path d="M10.0001 20H13.7502V16.2375H10.0001V20ZM16.2501 16.2362V19.9837H30V16.2362H16.2501Z" fill="#51BBA8"/>
<path d="M10.0001 13.7625H13.7502V10H10.0001V13.7625ZM16.2501 10V13.7488H30V10H16.2501ZM10.0001 26.2374H13.7502V22.5136H10.0001V26.2374ZM16.2501 26.2649H30V22.5175H16.2501V26.2649ZM10.0001 32.4886H13.7502V28.7648H10.0001V32.4886ZM16.2501 32.5149H30V28.7674H16.2501V32.5149Z" fill="#CCD0D2"/>
</svg>
