<svg width="40" height="40" viewBox="0 0 40 40" fill="none" xmlns="http://www.w3.org/2000/svg">
<g clip-path="url(#clip0_11_140)">
<path d="M37.4998 16.2501L35.6423 15.6426C35.2861 14.3652 34.7848 13.1489 34.146 12.0188L35.0261 10.2789C36.0023 9.30268 36.0023 7.72013 35.0261 6.74138L33.2586 4.97399C32.2824 3.9978 30.6998 3.9978 29.7236 4.97399L27.985 5.85647C26.8549 5.21653 25.6388 4.71516 24.3612 4.35891L23.75 2.49896C23.7498 1.11896 22.6298 0.000217438 21.2499 0.000217438H18.7499C17.3699 0.000217438 16.2499 1.11896 16.2499 2.49896L15.6437 4.35891C14.3687 4.71259 13.1586 5.21139 12.0312 5.84761L10.2775 4.97399C9.30132 3.9978 7.71877 3.9978 6.74259 4.97399L4.97377 6.74138C3.99759 7.71885 3.99759 9.3014 4.97377 10.2789L5.84625 12.0314C5.21246 13.1539 4.71623 14.3576 4.36126 15.6252L2.50003 16.2501C1.12003 16.2501 0 17.3701 0 18.7501V21.2502C0 22.6314 1.12003 23.7502 2.50003 23.7502L4.36255 24.3751C4.71751 25.6426 5.21503 26.8489 5.84754 27.9689L4.97506 29.7239C3.99887 30.6989 3.99887 32.2826 4.97506 33.2588L6.74259 35.0263C7.71877 36.0025 9.30132 36.0025 10.2775 35.0263L12.0312 34.1538C13.1525 34.7863 14.3574 35.2826 15.625 35.6375L16.2499 37.5013C16.2499 38.8813 17.3699 40.0001 18.7499 40.0001H21.2499C22.6299 40.0001 23.75 38.8813 23.75 37.5013L24.3749 35.6375C25.6473 35.2826 26.8549 34.7825 27.9811 34.1463L29.7236 35.0274C30.6998 36.0036 32.2824 36.0036 33.2586 35.0274L35.0261 33.2599C36.0023 32.2837 36.0023 30.6999 35.0261 29.725L34.1436 27.9837C34.7835 26.855 35.2849 25.64 35.6412 24.3626L37.5 23.75C38.88 23.75 40 22.6313 40 21.25V18.75C39.9997 17.3701 38.8798 16.2501 37.4998 16.2501ZM19.9999 27.5014C15.8586 27.5014 12.5 24.1426 12.5 20.0001C12.5 15.8589 15.8588 12.4989 19.9999 12.4989C24.1411 12.4989 27.4999 15.8589 27.4999 20.0001C27.4999 24.1437 24.1411 27.5014 19.9999 27.5014Z" fill="#D1D5D7"/>
<path d="M19.9999 3.75133C11.025 3.75133 3.75005 11.0263 3.75005 20.0012C3.75005 28.9761 11.025 36.2511 19.9999 36.2511C28.9749 36.2511 36.2498 28.9774 36.2498 20.0012C36.2498 11.0263 28.9749 3.75133 19.9999 3.75133ZM19.9999 25.0013C17.2387 25.0013 15 22.7625 15 20.0014C15 17.2402 17.2388 15.0014 19.9999 15.0014C22.7611 15.0014 24.9998 17.2402 24.9998 20.0014C24.9998 22.7625 22.7611 25.0013 19.9999 25.0013Z" fill="#EBEBEB"/>
<path d="M19.9999 11.2513C15.1674 11.2513 11.25 15.1687 11.25 20.0012C11.25 24.8337 15.1674 28.7512 19.9999 28.7512C24.8324 28.7512 28.7499 24.8337 28.7499 20.0012C28.7499 15.1687 24.8323 11.2513 19.9999 11.2513ZM19.9999 25.0013C17.2387 25.0013 15 22.7625 15 20.0014C15 17.2402 17.2388 15.0014 19.9999 15.0014C22.7611 15.0014 24.9998 17.2402 24.9998 20.0014C24.9998 22.7625 22.7611 25.0013 19.9999 25.0013Z" fill="#D1D5D7"/>
</g>
<defs>
<clipPath id="clip0_11_140">
<rect width="40" height="40" fill="white"/>
</clipPath>
</defs>
</svg>
