<svg width="40" height="40" viewBox="0 0 40 40" fill="none" xmlns="http://www.w3.org/2000/svg">
<path d="M2.50004 14.9998H7.49999C8.88 14.9998 10 16.1186 10 17.4999V33.7499C10 35.1312 8.88 36.2499 7.49999 36.2499H2.50004C1.12003 36.2499 0 35.1312 0 33.7499V17.4999C0 16.1186 1.12003 14.9998 2.50004 14.9998Z" fill="#26A6D1"/>
<path d="M17.5 3.74992H22.5C23.88 3.74992 25 4.86996 25 6.24997V33.75C25 35.1313 23.88 36.2501 22.5 36.2501H17.5C16.12 36.2501 15 35.1313 15 33.75V6.24983C15 4.86982 16.12 3.74992 17.5 3.74992Z" fill="#3DB39E"/>
<path d="M32.5 9.99989H37.5C38.88 9.99989 40 11.1199 40 12.4999V33.75C40 35.1313 38.88 36.2501 37.5 36.2501H32.5C31.12 36.2501 30 35.1313 30 33.75V12.4999C30.0001 11.1199 31.12 9.99989 32.5 9.99989Z" fill="#E2574C"/>
</svg>
