<svg width="40" height="40" viewBox="0 0 40 40" fill="none" xmlns="http://www.w3.org/2000/svg">
<g clip-path="url(#clip0_11_139)">
<path d="M2.50004 0H37.5C38.88 0 40 1.11875 40 2.50004V37.5C40 38.88 38.88 40 37.5 40H2.50004C1.12003 39.9999 0 38.88 0 37.5V2.50004C0 1.11875 1.12003 0 2.50004 0Z" fill="#E4E7E7"/>
<path d="M37.5 0H2.50004C1.12003 0 0 1.11875 0 2.50004V8.74998H39.9999V2.50004C39.9999 1.11875 38.88 0 37.5 0Z" fill="#E2574C"/>
<path d="M27.0974 21.1825C26.6575 21.1825 26.1999 21.2587 25.8411 21.4074L25.8011 21.3699C26.4586 20.4924 27.7549 19.2961 28.5524 18.3812C28.7911 18.0999 28.9712 17.8762 28.9712 17.615C28.9712 16.9424 28.1125 16.2512 27.5562 16.2512C27.395 16.2512 27.1763 16.2512 26.9574 16.3825C26.7187 16.5325 26.4786 16.6812 26.3186 16.83C24.3048 18.5863 21.2537 22.5487 21.2537 25.3687C21.2537 27.8538 23.1875 30.0024 26.2587 30.0024C29.2086 30.0024 31.2624 27.7986 31.2624 25.3687C31.2637 23.1624 29.4899 21.1825 27.0974 21.1825ZM26.2599 27.31C25.0636 27.31 24.365 26.4138 24.365 25.3662C24.365 24.2649 25.1225 23.4249 26.2599 23.4249C27.5162 23.4249 28.1549 24.3774 28.1549 25.3662C28.1536 26.4512 27.395 27.31 26.2599 27.31ZM17.1411 27.4862H13.3625C15.1175 25.4537 18.3187 22.83 18.3187 20.1913C18.3187 17.7775 16.2749 16.2388 13.735 16.2388C11.1952 16.2388 8.88253 18.1576 8.88253 20.5512C8.88253 21.2912 9.39748 21.9375 10.3888 21.9375C12.3713 21.9375 11.2363 18.86 13.6113 18.86C14.4575 18.86 15.0976 19.5438 15.0976 20.3224C15.0976 21.0062 14.7464 21.5948 14.3751 22.0899C12.8051 24.1799 10.9463 25.8887 9.23264 27.7699C9.02638 27.9986 8.75769 28.3399 8.75769 28.7387C8.75769 29.6138 9.46019 29.9924 10.369 29.9924H17.2664C18.0502 29.9924 18.7527 29.6136 18.7527 28.7387C18.7524 27.8649 18.0488 27.4862 17.1411 27.4862Z" fill="#324D5B"/>
<path d="M0 7.49996H39.9999V10H0V7.49996Z" fill="#BF392C"/>
<path d="M20 2.50004C20.6912 2.50004 21.25 3.05998 21.25 3.75005C21.25 4.44013 20.6912 5.00007 20 5.00007C19.3088 5.00007 18.75 4.44013 18.75 3.75005C18.75 3.05998 19.3086 2.50004 20 2.50004Z" fill="#BF392C"/>
<path d="M37.5 37.5H2.50004C1.12003 37.5 0 36.3799 0 34.9999V37.5C0 38.88 1.12003 40 2.50004 40H37.5C38.88 40 40 38.88 40 37.5V34.9999C39.9999 36.3799 38.88 37.5 37.5 37.5Z" fill="#C2C5C5"/>
</g>
<defs>
<clipPath id="clip0_11_139">
<rect width="40" height="40" fill="white"/>
</clipPath>
</defs>
</svg>
